<mxfile host="65bd71144e">
    <diagram id="B8URZ-HAMGt1PUFp55oM" name="Page-1">
        <mxGraphModel dx="2004" dy="1074" grid="1" gridSize="10" guides="1" tooltips="1" connect="1" arrows="1" fold="1" page="1" pageScale="1" pageWidth="850" pageHeight="1100" background="#ffffff" math="0" shadow="0">
            <root>
                <mxCell id="0"/>
                <mxCell id="1" parent="0"/>
                <mxCell id="4" value="" style="edgeStyle=none;html=1;fillColor=#fad9d5;strokeColor=#ae4132;fontColor=#000000;fontStyle=1" parent="1" source="2" target="3" edge="1">
                    <mxGeometry relative="1" as="geometry"/>
                </mxCell>
                <mxCell id="2" value="Start" style="ellipse;whiteSpace=wrap;html=1;fillColor=#fad9d5;strokeColor=#ae4132;fontColor=#000000;fontStyle=1" parent="1" vertex="1">
                    <mxGeometry x="80" y="70" width="80" height="50" as="geometry"/>
                </mxCell>
                <mxCell id="6" value="" style="edgeStyle=none;html=1;fillColor=#fad9d5;strokeColor=#ae4132;fontColor=#000000;fontStyle=1" parent="1" source="3" target="5" edge="1">
                    <mxGeometry relative="1" as="geometry"/>
                </mxCell>
                <mxCell id="3" value="Rating [][] = {{4,3,4,4}, {1,1,2,3}, {1,2,3,4}}" style="shape=hexagon;perimeter=hexagonPerimeter2;whiteSpace=wrap;html=1;fixedSize=1;fillColor=#fad9d5;strokeColor=#ae4132;fontColor=#000000;fontStyle=1" parent="1" vertex="1">
                    <mxGeometry x="45" y="160" width="150" height="80" as="geometry"/>
                </mxCell>
                <mxCell id="8" value="" style="edgeStyle=none;html=1;fillColor=#fad9d5;strokeColor=#ae4132;fontColor=#000000;fontStyle=1" parent="1" source="5" target="7" edge="1">
                    <mxGeometry relative="1" as="geometry"/>
                </mxCell>
                <mxCell id="5" value="double[] rata-rata = perhitungan rata-rata(rating)" style="shape=process;whiteSpace=wrap;html=1;backgroundOutline=1;fillColor=#fad9d5;strokeColor=#ae4132;fontColor=#000000;fontStyle=1" parent="1" vertex="1">
                    <mxGeometry x="40" y="280" width="160" height="60" as="geometry"/>
                </mxCell>
                <mxCell id="10" value="" style="edgeStyle=none;html=1;fillColor=#fad9d5;strokeColor=#ae4132;fontColor=#000000;fontStyle=1" parent="1" source="7" target="9" edge="1">
                    <mxGeometry relative="1" as="geometry"/>
                </mxCell>
                <mxCell id="7" value="double []&amp;nbsp;highest rating = rating tertinggi (rata-rata rating)" style="shape=process;whiteSpace=wrap;html=1;backgroundOutline=1;fillColor=#fad9d5;strokeColor=#ae4132;fontColor=#000000;fontStyle=1" parent="1" vertex="1">
                    <mxGeometry x="40" y="380" width="160" height="60" as="geometry"/>
                </mxCell>
                <mxCell id="12" value="" style="edgeStyle=none;html=1;fillColor=#fad9d5;strokeColor=#ae4132;fontColor=#000000;fontStyle=1" parent="1" source="9" target="11" edge="1">
                    <mxGeometry relative="1" as="geometry"/>
                </mxCell>
                <mxCell id="9" value="double[][] lowest rating = rating terendah (rata-rata rating)" style="shape=process;whiteSpace=wrap;html=1;backgroundOutline=1;fillColor=#fad9d5;strokeColor=#ae4132;fontColor=#000000;fontStyle=1" parent="1" vertex="1">
                    <mxGeometry x="40" y="480" width="160" height="60" as="geometry"/>
                </mxCell>
                <mxCell id="14" value="" style="edgeStyle=none;html=1;fillColor=#fad9d5;strokeColor=#ae4132;fontColor=#000000;fontStyle=1" parent="1" source="11" target="13" edge="1">
                    <mxGeometry relative="1" as="geometry"/>
                </mxCell>
                <mxCell id="11" value="rata-rata, rating tertinggi, rating terendah" style="shape=process;whiteSpace=wrap;html=1;backgroundOutline=1;fillColor=#fad9d5;strokeColor=#ae4132;fontColor=#000000;fontStyle=1" parent="1" vertex="1">
                    <mxGeometry x="40" y="600" width="160" height="60" as="geometry"/>
                </mxCell>
                <mxCell id="13" value="end" style="ellipse;whiteSpace=wrap;html=1;fillColor=#fad9d5;strokeColor=#ae4132;fontColor=#000000;fontStyle=1" parent="1" vertex="1">
                    <mxGeometry x="80" y="720" width="80" height="50" as="geometry"/>
                </mxCell>
                <mxCell id="17" value="" style="edgeStyle=none;html=1;fillColor=#fad9d5;strokeColor=#ae4132;fontColor=#000000;fontStyle=1" parent="1" source="15" target="16" edge="1">
                    <mxGeometry relative="1" as="geometry"/>
                </mxCell>
                <mxCell id="15" value="Perhitungan rata-rata (rating)" style="ellipse;whiteSpace=wrap;html=1;fillColor=#fad9d5;strokeColor=#ae4132;fontColor=#000000;fontStyle=1" parent="1" vertex="1">
                    <mxGeometry x="310" y="110" width="240" height="70" as="geometry"/>
                </mxCell>
                <mxCell id="19" value="" style="edgeStyle=none;html=1;fillColor=#fad9d5;strokeColor=#ae4132;fontColor=#000000;fontStyle=1" parent="1" source="16" target="18" edge="1">
                    <mxGeometry relative="1" as="geometry"/>
                </mxCell>
                <mxCell id="16" value="int kolom = 0" style="whiteSpace=wrap;html=1;fillColor=#fad9d5;strokeColor=#ae4132;fontColor=#000000;fontStyle=1" parent="1" vertex="1">
                    <mxGeometry x="310" y="230" width="240" height="60" as="geometry"/>
                </mxCell>
                <mxCell id="21" value="" style="edgeStyle=none;html=1;fillColor=#fad9d5;strokeColor=#ae4132;fontColor=#000000;fontStyle=1" parent="1" source="18" target="20" edge="1">
                    <mxGeometry relative="1" as="geometry"/>
                </mxCell>
                <mxCell id="18" value="" style="ellipse;whiteSpace=wrap;html=1;fillColor=#fad9d5;strokeColor=#ae4132;fontColor=#000000;fontStyle=1" parent="1" vertex="1">
                    <mxGeometry x="400" y="330" width="60" height="60" as="geometry"/>
                </mxCell>
                <mxCell id="23" value="" style="edgeStyle=none;html=1;fillColor=#fad9d5;strokeColor=#ae4132;fontColor=#000000;fontStyle=1" parent="1" source="20" target="22" edge="1">
                    <mxGeometry relative="1" as="geometry"/>
                </mxCell>
                <mxCell id="41" style="edgeStyle=none;html=1;entryX=0;entryY=0.5;entryDx=0;entryDy=0;fillColor=#fad9d5;strokeColor=#ae4132;fontColor=#000000;fontStyle=1" parent="1" source="20" target="40" edge="1">
                    <mxGeometry relative="1" as="geometry">
                        <Array as="points">
                            <mxPoint x="290" y="510"/>
                            <mxPoint x="290" y="1140"/>
                        </Array>
                    </mxGeometry>
                </mxCell>
                <mxCell id="20" value="kolom&amp;lt;rating.lenght" style="rhombus;whiteSpace=wrap;html=1;fillColor=#fad9d5;strokeColor=#ae4132;fontColor=#000000;fontStyle=1" parent="1" vertex="1">
                    <mxGeometry x="310" y="470" width="240" height="80" as="geometry"/>
                </mxCell>
                <mxCell id="31" style="edgeStyle=none;html=1;entryX=0;entryY=0.5;entryDx=0;entryDy=0;fillColor=#fad9d5;strokeColor=#ae4132;fontColor=#000000;fontStyle=1" parent="1" source="22" target="29" edge="1">
                    <mxGeometry relative="1" as="geometry">
                        <Array as="points">
                            <mxPoint x="430" y="1000"/>
                        </Array>
                    </mxGeometry>
                </mxCell>
                <mxCell id="22" value="sum = 0" style="whiteSpace=wrap;html=1;fillColor=#fad9d5;strokeColor=#ae4132;fontColor=#000000;fontStyle=1" parent="1" vertex="1">
                    <mxGeometry x="310" y="630" width="240" height="60" as="geometry"/>
                </mxCell>
                <mxCell id="36" style="edgeStyle=none;html=1;entryX=0.5;entryY=0;entryDx=0;entryDy=0;fillColor=#fad9d5;strokeColor=#ae4132;fontColor=#000000;fontStyle=1" parent="1" source="25" target="30" edge="1">
                    <mxGeometry relative="1" as="geometry">
                        <Array as="points">
                            <mxPoint x="570" y="480"/>
                        </Array>
                    </mxGeometry>
                </mxCell>
                <mxCell id="25" value="rata-rata rating [kolom] = sum/rating.lenght" style="rounded=0;whiteSpace=wrap;html=1;fillColor=#fad9d5;strokeColor=#ae4132;fontColor=#000000;fontStyle=1" parent="1" vertex="1">
                    <mxGeometry x="650" y="430" width="180" height="100" as="geometry"/>
                </mxCell>
                <mxCell id="35" value="" style="edgeStyle=none;html=1;fillColor=#fad9d5;strokeColor=#ae4132;fontColor=#000000;fontStyle=1" parent="1" source="26" target="25" edge="1">
                    <mxGeometry relative="1" as="geometry"/>
                </mxCell>
                <mxCell id="26" value="sum += rating[baris] [kolom]" style="rounded=0;whiteSpace=wrap;html=1;fillColor=#fad9d5;strokeColor=#ae4132;fontColor=#000000;fontStyle=1" parent="1" vertex="1">
                    <mxGeometry x="650" y="590" width="180" height="60" as="geometry"/>
                </mxCell>
                <mxCell id="34" value="" style="edgeStyle=none;html=1;fillColor=#fad9d5;strokeColor=#ae4132;fontColor=#000000;fontStyle=1" parent="1" source="27" target="26" edge="1">
                    <mxGeometry relative="1" as="geometry"/>
                </mxCell>
                <mxCell id="38" style="edgeStyle=none;html=1;entryX=1;entryY=0.5;entryDx=0;entryDy=0;fillColor=#fad9d5;strokeColor=#ae4132;fontColor=#000000;fontStyle=1" parent="1" source="27" target="37" edge="1">
                    <mxGeometry relative="1" as="geometry">
                        <Array as="points">
                            <mxPoint x="870" y="760"/>
                            <mxPoint x="870" y="360"/>
                        </Array>
                    </mxGeometry>
                </mxCell>
                <mxCell id="27" value="baris&amp;lt;rating.lenght" style="rhombus;whiteSpace=wrap;html=1;fillColor=#fad9d5;strokeColor=#ae4132;fontColor=#000000;fontStyle=1" parent="1" vertex="1">
                    <mxGeometry x="650" y="720" width="180" height="80" as="geometry"/>
                </mxCell>
                <mxCell id="33" value="" style="edgeStyle=none;html=1;fillColor=#fad9d5;strokeColor=#ae4132;fontColor=#000000;fontStyle=1" parent="1" source="28" target="27" edge="1">
                    <mxGeometry relative="1" as="geometry"/>
                </mxCell>
                <mxCell id="28" value="" style="ellipse;whiteSpace=wrap;html=1;aspect=fixed;fillColor=#fad9d5;strokeColor=#ae4132;fontColor=#000000;fontStyle=1" parent="1" vertex="1">
                    <mxGeometry x="715" y="860" width="50" height="50" as="geometry"/>
                </mxCell>
                <mxCell id="32" value="" style="edgeStyle=none;html=1;fillColor=#fad9d5;strokeColor=#ae4132;fontColor=#000000;fontStyle=1" parent="1" source="29" target="28" edge="1">
                    <mxGeometry relative="1" as="geometry"/>
                </mxCell>
                <mxCell id="29" value="int baris = 0" style="rounded=0;whiteSpace=wrap;html=1;fillColor=#fad9d5;strokeColor=#ae4132;fontColor=#000000;fontStyle=1" parent="1" vertex="1">
                    <mxGeometry x="650" y="970" width="180" height="60" as="geometry"/>
                </mxCell>
                <mxCell id="30" value="baris ++" style="rounded=0;whiteSpace=wrap;html=1;fillColor=#fad9d5;strokeColor=#ae4132;fontColor=#000000;fontStyle=1" parent="1" vertex="1">
                    <mxGeometry x="490" y="850" width="160" height="60" as="geometry"/>
                </mxCell>
                <mxCell id="39" value="" style="edgeStyle=none;html=1;fillColor=#fad9d5;strokeColor=#ae4132;fontColor=#000000;fontStyle=1" parent="1" source="37" target="18" edge="1">
                    <mxGeometry relative="1" as="geometry"/>
                </mxCell>
                <mxCell id="37" value="kolom ++" style="rounded=0;whiteSpace=wrap;html=1;fillColor=#fad9d5;strokeColor=#ae4132;fontColor=#000000;fontStyle=1" parent="1" vertex="1">
                    <mxGeometry x="550" y="330" width="120" height="60" as="geometry"/>
                </mxCell>
                <mxCell id="40" value="return rata-rata" style="ellipse;whiteSpace=wrap;html=1;fillColor=#fad9d5;strokeColor=#ae4132;fontColor=#000000;fontStyle=1" parent="1" vertex="1">
                    <mxGeometry x="680" y="1100" width="120" height="80" as="geometry"/>
                </mxCell>
                <mxCell id="42" value="main flowchart" style="text;html=1;strokeColor=none;fillColor=none;align=center;verticalAlign=middle;whiteSpace=wrap;rounded=0;fontColor=#000000;fontStyle=1" parent="1" vertex="1">
                    <mxGeometry x="90" y="30" width="60" height="30" as="geometry"/>
                </mxCell>
                <mxCell id="43" value="flowchart rata-rata" style="text;html=1;strokeColor=none;fillColor=none;align=center;verticalAlign=middle;whiteSpace=wrap;rounded=0;fontColor=#000000;fontStyle=1" parent="1" vertex="1">
                    <mxGeometry x="400" y="60" width="60" height="30" as="geometry"/>
                </mxCell>
                <mxCell id="44" value="NO" style="text;html=1;strokeColor=none;fillColor=none;align=center;verticalAlign=middle;whiteSpace=wrap;rounded=0;fontColor=#000000;fontStyle=1" parent="1" vertex="1">
                    <mxGeometry x="280" y="580" width="60" height="30" as="geometry"/>
                </mxCell>
                <mxCell id="45" value="YES" style="text;html=1;strokeColor=none;fillColor=none;align=center;verticalAlign=middle;whiteSpace=wrap;rounded=0;fontColor=#000000;fontStyle=1" parent="1" vertex="1">
                    <mxGeometry x="425" y="590" width="60" height="30" as="geometry"/>
                </mxCell>
                <mxCell id="46" value="YES" style="text;html=1;strokeColor=none;fillColor=none;align=center;verticalAlign=middle;whiteSpace=wrap;rounded=0;fontColor=#000000;fontStyle=1" parent="1" vertex="1">
                    <mxGeometry x="690" y="670" width="60" height="30" as="geometry"/>
                </mxCell>
                <mxCell id="47" value="NO" style="text;html=1;strokeColor=none;fillColor=none;align=center;verticalAlign=middle;whiteSpace=wrap;rounded=0;fontColor=#000000;fontStyle=1" parent="1" vertex="1">
                    <mxGeometry x="820" y="730" width="60" height="30" as="geometry"/>
                </mxCell>
            </root>
        </mxGraphModel>
    </diagram>
</mxfile>